<svg id="Capa_1" enable-background="new 0 0 512 512" height="512" viewBox="0 0 512 512" width="512" xmlns="http://www.w3.org/2000/svg"><g><path d="m484.847 365.877h-38.591v-40.009c0-15.942-12.971-28.912-28.913-28.912h-151.343v-52.153h103.729c18.755 0 34.013-15.259 34.013-34.014 0-17.763 0-144.71 0-160.893 0-18.755-15.258-34.013-34.013-34.013h-236.299c-18.755 0-34.014 15.258-34.014 34.013v160.893c0 18.755 15.259 34.014 34.014 34.014h112.57v52.153h-151.343c-15.942 0-28.913 12.97-28.913 28.912v40.009h-38.591c-14.972 0-27.153 12.181-27.153 27.154v75.932c0 14.973 12.181 27.153 27.153 27.153h97.183c14.973 0 27.153-12.181 27.153-27.153v-75.932c0-14.973-12.181-27.153-27.153-27.153h-38.592v-40.009c0-4.914 3.998-8.912 8.913-8.912h151.343v48.921h-38.591c-14.973 0-27.153 12.181-27.153 27.153v75.932c0 14.973 12.181 27.153 27.153 27.153h97.182c14.973 0 27.153-12.181 27.153-27.153v-75.932c0-14.973-12.181-27.153-27.153-27.153h-38.591v-48.921h151.343c4.915 0 8.913 3.998 8.913 8.912v40.009h-38.592c-14.973 0-27.153 12.181-27.153 27.153v75.932c0 14.973 12.181 27.153 27.153 27.153h97.183c14.973 0 27.153-12.181 27.153-27.153v-75.932c0-14.973-12.181-27.154-27.153-27.154zm-365.431-315.98c0-7.727 6.286-14.013 14.014-14.013h236.299c7.727 0 14.013 6.286 14.013 14.013v22.706h-264.326zm0 160.893v-118.187h264.325v118.187c0 7.728-6.286 14.014-14.013 14.014h-236.298c-7.728-.001-14.014-6.287-14.014-14.014zm12.073 182.241v75.932c0 3.944-3.209 7.153-7.153 7.153h-97.183c-3.944 0-7.153-3.209-7.153-7.153v-75.932c0-3.944 3.209-7.153 7.153-7.153h97.183c3.944-.001 7.153 3.208 7.153 7.153zm180.255 0v75.932c0 3.944-3.209 7.153-7.153 7.153h-97.182c-3.944 0-7.153-3.209-7.153-7.153v-75.932c0-3.944 3.209-7.153 7.153-7.153h97.182c3.944-.001 7.153 3.208 7.153 7.153zm180.256 75.931c0 3.944-3.209 7.153-7.153 7.153h-97.183c-3.944 0-7.153-3.209-7.153-7.153v-75.932c0-3.944 3.209-7.153 7.153-7.153h97.183c3.944 0 7.153 3.209 7.153 7.153z"/><path d="m311.579 210.58h26.426c15.026 0 27.252-12.226 27.252-27.252v-48.613c0-15.026-12.226-27.252-27.252-27.252h-26.426c-15.026 0-27.252 12.226-27.252 27.252v48.613c0 15.026 12.226 27.252 27.252 27.252zm-7.252-75.866c0-3.999 3.253-7.252 7.252-7.252h26.426c3.999 0 7.252 3.253 7.252 7.252v48.613c0 3.999-3.253 7.252-7.252 7.252h-26.426c-3.999 0-7.252-3.253-7.252-7.252z"/><path d="m144.589 131.166h93.79c5.522 0 10-4.478 10-10s-4.478-10-10-10h-93.79c-5.522 0-10 4.478-10 10s4.477 10 10 10z"/><path d="m238.38 146.077c-6.232 0-11.055 5.727-9.811 11.96.962 4.705 5.066 8.05 9.811 8.05 5.579 0 10-4.562 10-10.01 0-5.396-4.386-10-10-10z"/><path d="m144.589 166.081h59.561c5.522 0 10-4.478 10-10s-4.478-10-10-10h-59.561c-5.522 0-10 4.478-10 10s4.477 10 10 10z"/><path d="m238.379 180.996h-93.79c-5.522 0-10 4.478-10 10s4.478 10 10 10h93.79c5.522 0 10-4.478 10-10s-4.478-10-10-10z"/><path d="m54.641 413.333c0 5.522 4.478 10 10 10h44.775c5.522 0 10-4.478 10-10s-4.478-10-10-10h-44.775c-5.523 0-10 4.477-10 10z"/><path d="m109.416 438.661h-66.7c-5.522 0-10 4.478-10 10s4.478 10 10 10h66.7c5.522 0 10-4.478 10-10s-4.478-10-10-10z"/><path d="m229.325 413.333c0 5.522 4.478 10 10 10h33.35c5.522 0 10-4.478 10-10s-4.478-10-10-10h-33.35c-5.522 0-10 4.477-10 10z"/><path d="m212.65 448.661c0 5.522 4.478 10 10 10h66.699c5.522 0 10-4.478 10-10s-4.478-10-10-10h-66.699c-5.522 0-10 4.477-10 10z"/><path d="m402.905 423.333h43.498c5.522 0 10-4.478 10-10s-4.478-10-10-10h-43.498c-5.522 0-10 4.478-10 10s4.478 10 10 10z"/><path d="m469.605 438.661h-66.7c-5.522 0-10 4.478-10 10s4.478 10 10 10h66.7c5.522 0 10-4.478 10-10s-4.477-10-10-10z"/><path d="m363.039 44.244h-6.877c-5.522 0-10 4.478-10 10s4.478 10 10 10h6.877c5.522 0 10-4.478 10-10s-4.477-10-10-10z"/></g></svg>